<svg width="362" height="92" viewBox="0 0 362 92" fill="none" xmlns="http://www.w3.org/2000/svg">
<ellipse cx="313.5" cy="43.5" rx="46.5" ry="39.5" fill="black" stroke="#67FEB8" stroke-width="4"/>
<path d="M338.391 43.3675L298.862 63.014L298.841 23.7552L338.391 43.3675Z" fill="#45DB96" stroke="#14462F" stroke-width="4"/>
<path d="M10.0781 76V11.5938H27.4688V61.8906H74.4844V76H10.0781ZM162.609 51.25C162.609 55.4375 161.578 59.1719 159.516 62.4531C157.453 65.7344 154.516 68.5156 150.703 70.7969C146.922 73.0469 142.328 74.7656 136.922 75.9531C131.547 77.1406 125.516 77.7344 118.828 77.7344C115.891 77.7344 112.797 77.6094 109.547 77.3594C106.328 77.1406 103.172 76.8125 100.078 76.375C97.0156 75.9688 94.1406 75.5 91.4531 74.9688C88.7656 74.4062 86.5 73.7969 84.6562 73.1406V57.8594C86.6562 58.7031 88.875 59.5 91.3125 60.25C93.7812 61 96.4531 61.6719 99.3281 62.2656C102.203 62.8281 105.281 63.2812 108.562 63.625C111.875 63.9375 115.375 64.0938 119.062 64.0938C122.531 64.0938 125.578 63.8906 128.203 63.4844C130.859 63.0781 133.156 62.5312 135.094 61.8438C137.031 61.1562 138.641 60.375 139.922 59.5C141.203 58.5938 142.234 57.6719 143.016 56.7344C143.797 55.7656 144.344 54.8125 144.656 53.875C145 52.9375 145.172 52.0625 145.172 51.25V45.5781C141.984 47.9219 138.188 49.8594 133.781 51.3906C129.375 52.8906 124.359 53.6406 118.734 53.6406C112.203 53.6406 106.75 53.0156 102.375 51.7656C98.0312 50.4844 94.5469 48.6562 91.9219 46.2812C89.2969 43.875 87.4219 40.9531 86.2969 37.5156C85.2031 34.0781 84.6562 30.2031 84.6562 25.8906V11.5938H102.141V24.1562C102.141 26.6875 102.469 28.9375 103.125 30.9062C103.812 32.875 104.875 34.5312 106.312 35.875C107.781 37.1875 109.672 38.1875 111.984 38.875C114.297 39.5625 117.094 39.9062 120.375 39.9062C123.156 39.9062 125.781 39.5625 128.25 38.875C130.75 38.1875 133.047 37.2812 135.141 36.1562C137.234 35.0312 139.125 33.75 140.812 32.3125C142.5 30.875 143.953 29.4062 145.172 27.9062V11.5938H162.609V51.25ZM255.141 33.5781C255.141 36.7969 254.672 39.7656 253.734 42.4844C252.797 45.1719 251.281 47.5 249.188 49.4688C247.125 51.4062 244.438 52.9219 241.125 54.0156C237.812 55.1094 233.781 55.6562 229.031 55.6562H200.156V76H182.766V11.5938H229.031C233.781 11.5938 237.812 12.1406 241.125 13.2344C244.438 14.2969 247.125 15.8125 249.188 17.7812C251.281 19.7187 252.797 22.0313 253.734 24.7188C254.672 27.4062 255.141 30.3594 255.141 33.5781ZM237.562 33.8594C237.562 32.3594 237.344 31.0781 236.906 30.0156C236.5 28.9219 235.812 28.0312 234.844 27.3438C233.875 26.6562 232.609 26.1563 231.047 25.8438C229.484 25.5 227.562 25.3281 225.281 25.3281H200.156V41.9219H225.281C227.562 41.9219 229.484 41.7969 231.047 41.5469C232.609 41.2656 233.875 40.8125 234.844 40.1875C235.812 39.5312 236.5 38.6875 236.906 37.6562C237.344 36.625 237.562 35.3594 237.562 33.8594Z" fill="black"/>
<path d="M10.0781 76H6.07812V80H10.0781V76ZM10.0781 11.5938V7.59375H6.07812V11.5938H10.0781ZM27.4688 11.5938H31.4688V7.59375H27.4688V11.5938ZM27.4688 61.8906H23.4688V65.8906H27.4688V61.8906ZM74.4844 61.8906H78.4844V57.8906H74.4844V61.8906ZM74.4844 76V80H78.4844V76H74.4844ZM14.0781 76V11.5938H6.07812V76H14.0781ZM10.0781 15.5938H27.4688V7.59375H10.0781V15.5938ZM23.4688 11.5938V61.8906H31.4688V11.5938H23.4688ZM27.4688 65.8906H74.4844V57.8906H27.4688V65.8906ZM70.4844 61.8906V76H78.4844V61.8906H70.4844ZM74.4844 72H10.0781V80H74.4844V72ZM150.703 70.7969L152.749 74.2344L152.757 74.2293L150.703 70.7969ZM136.922 75.9531L136.064 72.0463L136.059 72.0473L136.922 75.9531ZM109.547 77.3594L109.854 73.3712L109.836 73.3698L109.818 73.3686L109.547 77.3594ZM100.078 76.375L100.638 72.4144L100.621 72.412L100.604 72.4097L100.078 76.375ZM91.4531 74.9688L90.6337 78.8839L90.6555 78.8885L90.6774 78.8928L91.4531 74.9688ZM84.6562 73.1406H80.6562V75.9627L83.3149 76.909L84.6562 73.1406ZM84.6562 57.8594L86.2111 54.1739L80.6562 51.8305V57.8594H84.6562ZM91.3125 60.25L90.1362 64.0731L90.143 64.0752L90.1498 64.0773L91.3125 60.25ZM99.3281 62.2656L98.5191 66.183L98.5396 66.1872L98.5601 66.1912L99.3281 62.2656ZM108.562 63.625L108.146 67.6032L108.166 67.6054L108.187 67.6073L108.562 63.625ZM128.203 63.4844L127.598 59.5303L127.591 59.5314L128.203 63.4844ZM139.922 59.5L142.178 62.8032L142.205 62.7847L142.232 62.7657L139.922 59.5ZM143.016 56.7344L146.089 59.2951L146.109 59.2704L146.129 59.2454L143.016 56.7344ZM144.656 53.875L140.901 52.498L140.88 52.5537L140.862 52.6101L144.656 53.875ZM145.172 45.5781H149.172V37.672L142.802 42.3555L145.172 45.5781ZM133.781 51.3906L135.07 55.1772L135.082 55.1731L135.094 55.169L133.781 51.3906ZM102.375 51.7656L101.243 55.6022L101.26 55.607L101.276 55.6117L102.375 51.7656ZM91.9219 46.2812L89.219 49.2299L89.2286 49.2387L89.2382 49.2474L91.9219 46.2812ZM86.2969 37.5156L82.4852 38.7284L82.4902 38.7441L82.4953 38.7598L86.2969 37.5156ZM84.6562 11.5938V7.59375H80.6562V11.5938H84.6562ZM102.141 11.5938H106.141V7.59375H102.141V11.5938ZM103.125 30.9062L99.3303 32.1712L99.3393 32.1981L99.3486 32.225L103.125 30.9062ZM106.312 35.875L103.581 38.7971L103.614 38.8277L103.647 38.8576L106.312 35.875ZM128.25 38.875L127.189 35.0182L127.177 35.0216L128.25 38.875ZM145.172 27.9062L148.276 30.4286L149.172 29.3264V27.9062H145.172ZM145.172 11.5938V7.59375H141.172V11.5938H145.172ZM162.609 11.5938H166.609V7.59375H162.609V11.5938ZM158.609 51.25C158.609 54.7474 157.758 57.7322 156.129 60.3244L162.902 64.5818C165.398 60.6115 166.609 56.1276 166.609 51.25H158.609ZM156.129 60.3244C154.448 62.9989 152.001 65.3591 148.649 67.3644L152.757 74.2293C157.031 71.6721 160.458 68.4698 162.902 64.5818L156.129 60.3244ZM148.658 67.3594C145.325 69.3423 141.155 70.928 136.064 72.0463L137.78 79.86C143.502 78.6032 148.518 76.7515 152.749 74.2343L148.658 67.3594ZM136.059 72.0473C131.02 73.1605 125.285 73.7344 118.828 73.7344V81.7344C125.746 81.7344 132.074 81.1207 137.785 79.8589L136.059 72.0473ZM118.828 73.7344C116.003 73.7344 113.012 73.6141 109.854 73.3712L109.24 81.3476C112.581 81.6046 115.778 81.7344 118.828 81.7344V73.7344ZM109.818 73.3686C106.693 73.1562 103.633 72.8379 100.638 72.4144L99.518 80.3356C102.711 80.7871 105.963 81.1251 109.276 81.3502L109.818 73.3686ZM100.604 72.4097C97.6149 72.0132 94.8239 71.5577 92.2288 71.0447L90.6774 78.8928C93.4574 79.4423 96.4163 79.9243 99.5521 80.3403L100.604 72.4097ZM92.2726 71.0536C89.6976 70.5146 87.6183 69.9491 85.9976 69.3722L83.3149 76.909C85.3817 77.6447 87.8337 78.2979 90.6337 78.8839L92.2726 71.0536ZM88.6562 73.1406V57.8594H80.6562V73.1406H88.6562ZM83.1014 61.5448C85.2443 62.4489 87.5918 63.2902 90.1362 64.0731L92.4888 56.4269C90.1582 55.7098 88.0682 54.9574 86.2111 54.1739L83.1014 61.5448ZM90.1498 64.0773C92.7496 64.8671 95.5408 65.5679 98.5191 66.183L100.137 58.3483C97.3655 57.7759 94.8129 57.1329 92.4752 56.4227L90.1498 64.0773ZM98.5601 66.1912C101.565 66.7791 104.761 67.2486 108.146 67.6032L108.979 59.6468C105.801 59.3139 102.842 58.8772 100.096 58.3401L98.5601 66.1912ZM108.187 67.6073C111.637 67.9328 115.263 68.0938 119.062 68.0938V60.0938C115.487 60.0938 112.113 59.9422 108.938 59.6427L108.187 67.6073ZM119.062 68.0938C122.678 68.0938 125.937 67.8827 128.815 67.4373L127.591 59.5314C125.219 59.8986 122.385 60.0938 119.062 60.0938V68.0938ZM128.808 67.4384C131.642 67.0049 134.196 66.4065 136.431 65.6135L133.756 58.074C132.116 58.656 130.076 59.1514 127.598 59.5304L128.808 67.4384ZM136.431 65.6135C138.595 64.8456 140.537 63.9238 142.178 62.8032L137.666 56.1968C136.744 56.8262 135.467 57.4669 133.756 58.074L136.431 65.6135ZM142.232 62.7657C143.72 61.7127 145.032 60.5632 146.089 59.2951L139.943 54.1736C139.437 54.7805 138.686 55.4748 137.612 56.2343L142.232 62.7657ZM146.129 59.2454C147.136 57.9976 147.954 56.6304 148.451 55.1399L140.862 52.6101C140.733 52.9946 140.458 53.5337 139.902 54.2234L146.129 59.2454ZM148.412 55.252C148.881 53.9709 149.172 52.626 149.172 51.25H141.172C141.172 51.499 141.119 51.9041 140.901 52.498L148.412 55.252ZM149.172 51.25V45.5781H141.172V51.25H149.172ZM142.802 42.3555C139.989 44.4242 136.562 46.1895 132.468 47.6123L135.094 55.169C139.813 53.5292 143.98 51.4195 147.541 48.8007L142.802 42.3555ZM132.492 47.604C128.577 48.9368 124.009 49.6406 118.734 49.6406V57.6406C124.709 57.6406 130.173 56.8445 135.07 55.1772L132.492 47.604ZM118.734 49.6406C112.428 49.6406 107.373 49.0337 103.474 47.9195L101.276 55.6117C106.127 56.9976 111.978 57.6406 118.734 57.6406V49.6406ZM103.507 47.929C99.5834 46.7718 96.6787 45.1908 94.6055 43.3151L89.2382 49.2474C92.4151 52.1217 96.4791 54.1969 101.243 55.6022L103.507 47.929ZM94.6248 43.3326C92.5146 41.3983 91.0132 39.0666 90.0985 36.2715L82.4953 38.7598C83.8305 42.8396 86.0792 46.3517 89.219 49.2299L94.6248 43.3326ZM90.1086 36.3028C89.1612 33.3254 88.6562 29.8695 88.6562 25.8906H80.6562C80.6562 30.5367 81.245 34.8308 82.4852 38.7284L90.1086 36.3028ZM88.6562 25.8906V11.5938H80.6562V25.8906H88.6562ZM84.6562 15.5938H102.141V7.59375H84.6562V15.5938ZM98.1406 11.5938V24.1562H106.141V11.5938H98.1406ZM98.1406 24.1562C98.1406 27.0263 98.512 29.7163 99.3303 32.1712L106.92 29.6413C106.426 28.1587 106.141 26.3487 106.141 24.1562H98.1406ZM99.3486 32.225C100.236 34.7673 101.642 36.9849 103.581 38.7971L109.044 32.9529C108.108 32.0776 107.389 30.9827 106.901 29.5875L99.3486 32.225ZM103.647 38.8576C105.643 40.6411 108.091 41.8907 110.844 42.7091L113.124 35.0409C111.252 34.4843 109.92 33.7339 108.978 32.8924L103.647 38.8576ZM110.844 42.7091C113.633 43.5381 116.837 43.9062 120.375 43.9062V35.9062C117.351 35.9062 114.961 35.5869 113.124 35.0409L110.844 42.7091ZM120.375 43.9062C123.488 43.9062 126.477 43.5211 129.323 42.7284L127.177 35.0216C125.086 35.6039 122.824 35.9062 120.375 35.9062V43.9062ZM129.311 42.7318C132.074 41.9719 134.653 40.959 137.034 39.6798L133.247 32.6327C131.44 33.6035 129.426 34.4031 127.189 35.0182L129.311 42.7318ZM137.034 39.6798C139.36 38.4302 141.488 36.9916 143.406 35.3575L138.219 29.2675C136.762 30.5084 135.109 31.6323 133.247 32.6327L137.034 39.6798ZM143.406 35.3575C145.253 33.7843 146.883 32.1432 148.276 30.4286L142.067 25.3839C141.023 26.6693 139.747 27.9657 138.219 29.2675L143.406 35.3575ZM149.172 27.9062V11.5938H141.172V27.9062H149.172ZM145.172 15.5938H162.609V7.59375H145.172V15.5938ZM158.609 11.5938V51.25H166.609V11.5938H158.609ZM253.734 42.4844L257.511 43.8019L257.514 43.7951L257.516 43.7883L253.734 42.4844ZM249.188 49.4688L251.926 52.3841L251.928 52.3828L249.188 49.4688ZM200.156 55.6562V51.6562H196.156V55.6562H200.156ZM200.156 76V80H204.156V76H200.156ZM182.766 76H178.766V80H182.766V76ZM182.766 11.5938V7.59375H178.766V11.5938H182.766ZM241.125 13.2344L239.871 17.0327L239.887 17.038L239.903 17.0432L241.125 13.2344ZM249.188 17.7812L246.426 20.6747L246.448 20.6961L246.471 20.7171L249.188 17.7812ZM236.906 30.0156L233.157 31.4084L233.181 31.4739L233.208 31.5386L236.906 30.0156ZM231.047 25.8438L230.187 29.7503L230.225 29.7586L230.262 29.7661L231.047 25.8438ZM200.156 25.3281V21.3281H196.156V25.3281H200.156ZM200.156 41.9219H196.156V45.9219H200.156V41.9219ZM231.047 41.5469L231.679 45.4966L231.717 45.4905L231.755 45.4836L231.047 41.5469ZM234.844 40.1875L237.012 43.5487L237.05 43.5243L237.087 43.4992L234.844 40.1875ZM236.906 37.6562L233.224 36.0941L233.204 36.1418L233.185 36.1902L236.906 37.6562ZM251.141 33.5781C251.141 36.4055 250.73 38.928 249.953 41.1804L257.516 43.7883C258.614 40.6032 259.141 37.1882 259.141 33.5781H251.141ZM249.958 41.1669C249.234 43.2404 248.077 45.0225 246.447 46.5547L251.928 52.3828C254.486 49.9775 256.359 47.1034 257.511 43.8019L249.958 41.1669ZM246.449 46.5534C244.898 48.0103 242.756 49.2647 239.871 50.2173L242.379 57.8139C246.119 56.579 249.352 54.8022 251.926 52.3841L246.449 46.5534ZM239.871 50.2173C237.08 51.139 233.498 51.6562 229.031 51.6562V59.6562C234.064 59.6562 238.545 59.0798 242.379 57.8139L239.871 50.2173ZM229.031 51.6562H200.156V59.6562H229.031V51.6562ZM196.156 55.6562V76H204.156V55.6562H196.156ZM200.156 72H182.766V80H200.156V72ZM186.766 76V11.5938H178.766V76H186.766ZM182.766 15.5938H229.031V7.59375H182.766V15.5938ZM229.031 15.5938C233.498 15.5938 237.08 16.111 239.871 17.0327L242.379 9.43607C238.545 8.17021 234.064 7.59375 229.031 7.59375V15.5938ZM239.903 17.0432C242.764 17.9609 244.886 19.2054 246.426 20.6747L251.949 14.8878C249.364 12.4196 246.111 10.6328 242.347 9.42551L239.903 17.0432ZM246.471 20.7171C248.085 22.211 249.236 23.9682 249.958 26.0362L257.511 23.4013C256.358 20.0943 254.477 17.2265 251.904 14.8454L246.471 20.7171ZM249.958 26.0362C250.729 28.2487 251.141 30.75 251.141 33.5781H259.141C259.141 29.9688 258.614 26.5638 257.511 23.4013L249.958 26.0362ZM241.562 33.8594C241.562 31.9888 241.292 30.1612 240.605 28.4926L233.208 31.5386C233.395 31.995 233.562 32.73 233.562 33.8594H241.562ZM240.656 28.6229C239.965 26.7617 238.77 25.2251 237.159 24.0817L232.529 30.6058C232.855 30.8374 233.035 31.0821 233.157 31.4084L240.656 28.6229ZM237.159 24.0817C235.604 22.9782 233.767 22.3085 231.831 21.9214L230.262 29.7661C231.452 30.004 232.146 30.3343 232.529 30.6058L237.159 24.0817ZM231.906 21.9372C229.97 21.5113 227.74 21.3281 225.281 21.3281V29.3281C227.385 29.3281 228.998 29.4887 230.187 29.7503L231.906 21.9372ZM225.281 21.3281H200.156V29.3281H225.281V21.3281ZM196.156 25.3281V41.9219H204.156V25.3281H196.156ZM200.156 45.9219H225.281V37.9219H200.156V45.9219ZM225.281 45.9219C227.69 45.9219 229.838 45.7911 231.679 45.4966L230.415 37.5971C229.13 37.8026 227.435 37.9219 225.281 37.9219V45.9219ZM231.755 45.4836C233.655 45.1418 235.466 44.5462 237.012 43.5487L232.675 36.8263C232.284 37.0788 231.564 37.3895 230.338 37.6101L231.755 45.4836ZM237.087 43.4992C238.684 42.4174 239.909 40.9466 240.628 39.1223L233.185 36.1902C233.091 36.4284 232.941 36.6451 232.6 36.8758L237.087 43.4992ZM240.589 39.2184C241.294 37.5561 241.562 35.7242 241.562 33.8594H233.562C233.562 34.9946 233.394 35.6939 233.224 36.0941L240.589 39.2184Z" fill="#67FEB8"/>
</svg>
